<?xml version="1.0" encoding="UTF-8"?>
<!-- Generator: visioncortex VTracer 0.6.12 -->
<svg version="1.1" xmlns="http://www.w3.org/2000/svg" width="1743" height="733" viewBox="0 0 1743 733" fill="currentColor" style="color:#1A2740">
<path d="M0 0 C37.307 -1.088 73.726 12.183 101.09 37.598 C128.404 63.686 143.601 98.43 145.535 136.113 C146.037 177.387 130.59 214.275 102 243.633 C90.604 255.187 90.604 255.187 86.094 258.84 C70.954 271.538 60.421 291.586 54.02 310.031 C53.789 310.677 53.559 311.322 53.322 311.987 C48.262 327.474 47.886 343.458 47.9 359.579 C47.891 361.768 47.88 363.958 47.869 366.148 C47.841 372.035 47.832 377.922 47.826 383.81 C47.816 389.984 47.79 396.157 47.766 402.331 C47.722 413.997 47.694 425.662 47.671 437.328 C47.643 450.619 47.6 463.911 47.554 477.202 C47.462 504.52 47.392 531.838 47.332 559.156 C17.302 559.156 -12.728 559.156 -43.668 559.156 C-43.708 514.644 -43.708 514.644 -43.717 495.828 C-43.723 482.895 -43.73 469.961 -43.743 457.027 C-43.753 447.603 -43.76 438.179 -43.762 428.755 C-43.763 423.777 -43.766 418.8 -43.774 413.822 C-43.824 378.153 -43.824 378.153 -43.236 361.181 C-43.199 360.1 -43.162 359.019 -43.123 357.905 C-40.77 299.936 -10.457 255.088 30.332 216.156 C32.369 214.319 34.434 212.524 36.516 210.738 C53.32 196.102 69.844 173.68 71.509 150.715 C72.039 128.662 68.717 111.021 53.836 93.723 C40.573 80.129 23.391 73.005 4.52 72.719 C-13.78 72.86 -30.289 79.491 -43.668 92.156 C-56.888 106.063 -63.85 123.907 -63.668 143.156 C-62.776 158.043 -58.493 171.108 -49.668 183.156 C-49.158 183.863 -48.647 184.569 -48.121 185.297 C-38.918 196.869 -24.745 203.637 -10.668 207.156 C-11.994 208.497 -13.329 209.829 -14.668 211.156 C-15.287 211.777 -15.907 212.398 -16.545 213.038 C-24.887 220.087 -34.25 219.285 -44.613 219.297 C-46.553 219.317 -48.492 219.338 -50.432 219.36 C-54.482 219.398 -58.531 219.407 -62.581 219.398 C-67.759 219.392 -72.931 219.478 -78.108 219.587 C-82.108 219.657 -86.106 219.668 -90.106 219.662 C-92.015 219.669 -93.923 219.696 -95.831 219.745 C-110.312 220.079 -110.312 220.079 -114.245 216.869 C-117.237 213.362 -118.964 209.427 -120.668 205.156 C-121.354 203.866 -122.051 202.581 -122.77 201.309 C-139.579 165.835 -140.392 127.699 -127.582 90.898 C-120.506 71.497 -109.184 54.757 -94.668 40.156 C-94.435 39.921 -94.435 39.921 -93.255 38.731 C-68.693 14.312 -34.295 1.461 0 0 Z " fill="currentColor" transform="translate(1257.66796875,19.84375)"/>
<path d="M0 0 C30.69 0 61.38 0 93 0 C93.33 71.28 93.66 142.56 94 216 C106.725 201.861 106.725 201.861 112.68 194.848 C118.274 188.267 123.957 181.802 129.844 175.48 C133.06 172.026 136.205 168.526 139.293 164.957 C141.336 162.614 143.417 160.307 145.5 158 C148.19 155.019 150.863 152.028 153.5 149 C156.893 145.105 160.352 141.272 163.812 137.438 C165.726 135.306 167.619 133.16 169.5 131 C172.893 127.105 176.352 123.272 179.812 119.438 C181.726 117.306 183.619 115.16 185.5 113 C190.371 107.41 195.359 101.925 200.328 96.422 C205.843 90.306 211.321 84.166 216.645 77.883 C222.388 71.116 228.257 64.519 234.341 58.056 C238.454 53.658 242.25 49.091 246.016 44.391 C248.303 41.636 250.758 39.152 253.328 36.664 C255.725 34.278 257.909 31.727 260.117 29.168 C262.216 26.752 264.354 24.375 266.5 22 C269.209 18.997 271.903 15.984 274.562 12.938 C274.828 12.641 274.828 12.641 276.169 11.139 C278 9 278 9 279.692 6.683 C284.459 0.499 284.459 0.499 288.514 -0.815 C291.442 -1.105 294.248 -1.115 297.189 -1.022 C297.736 -1.022 297.736 -1.022 300.503 -1.026 C304.098 -1.019 307.688 -0.95 311.281 -0.879 C313.781 -0.862 316.281 -0.849 318.78 -0.84 C324.674 -0.81 330.566 -0.739 336.459 -0.648 C343.832 -0.537 351.205 -0.489 358.578 -0.439 C371.72 -0.343 384.86 -0.191 398 0 C397.035 1.126 396.071 2.253 395.106 3.379 C394.569 4.006 394.032 4.633 393.478 5.279 C391.956 7.051 390.42 8.81 388.875 10.562 C386.654 13.091 384.454 15.636 382.273 18.199 C376.937 24.469 371.535 30.643 365.93 36.675 C363.033 39.815 360.297 43.042 357.625 46.375 C353.014 52.105 348.022 57.431 342.996 62.793 C339.11 66.94 335.384 71.209 331.693 75.53 C330.171 77.312 328.648 79.094 327.125 80.875 C326.605 81.484 326.085 82.093 325.549 82.72 C322.521 86.257 319.448 89.744 316.312 93.188 C313.34 96.458 310.515 99.802 307.75 103.25 C303.652 108.323 299.269 113.059 294.802 117.803 C290.739 122.143 286.958 126.647 283.242 131.289 C280.761 134.289 278.151 137.152 275.5 140 C272.048 143.709 268.735 147.485 265.562 151.438 C261.719 156.216 257.63 160.692 253.442 165.164 C249.541 169.352 245.929 173.719 242.348 178.184 C239.172 181.993 235.788 185.588 232.397 189.206 C227.997 193.931 223.931 198.878 220 204 C221.272 206.661 222.656 209.072 224.363 211.477 C224.597 211.807 224.597 211.807 225.781 213.48 C226.286 214.188 226.792 214.896 227.312 215.625 C227.844 216.373 228.375 217.121 228.922 217.891 C230.611 220.264 232.304 222.633 234 225 C234.531 225.742 235.063 226.484 235.61 227.248 C242.257 236.516 248.99 245.718 255.767 254.892 C261.364 262.476 266.884 270.116 272.391 277.766 C275.09 281.514 277.795 285.257 280.5 289 C283.741 293.486 286.981 297.973 290.215 302.465 C296.348 310.98 302.533 319.455 308.769 327.894 C312.714 333.238 316.62 338.609 320.5 344 C327.26 353.388 334.124 362.697 341 372 C348.421 382.041 355.812 392.101 363.108 402.233 C369.933 411.7 376.881 421.076 383.819 430.46 C389.876 438.654 395.931 446.849 401.875 455.125 C402.298 455.711 402.721 456.298 403.157 456.902 C406 460.881 406 460.881 406 462 C391.44 462.304 376.881 462.533 362.318 462.674 C355.555 462.74 348.795 462.832 342.033 462.981 C335.504 463.125 328.976 463.2 322.445 463.233 C319.958 463.257 317.471 463.304 314.984 463.374 C294.458 463.932 294.458 463.932 289.307 459.179 C286.642 456.078 284.816 452.659 283 449 C281.922 447.464 280.82 445.945 279.672 444.461 C278.696 443.1 277.722 441.738 276.75 440.375 C270.494 431.66 264.142 423.019 257.766 414.391 C254.84 410.43 251.92 406.465 249 402.5 C247.833 400.917 246.667 399.333 245.5 397.75 C243.167 394.583 240.833 391.417 238.5 388.25 C237.922 387.466 237.345 386.682 236.75 385.875 C235.584 384.292 234.418 382.71 233.252 381.127 C230.326 377.154 227.397 373.183 224.465 369.215 C218.225 360.767 212.029 352.29 205.892 343.767 C200.243 335.931 194.507 328.16 188.766 320.391 C186.423 317.219 184.084 314.045 181.746 310.869 C180.588 309.298 179.429 307.727 178.27 306.156 C175.228 302.033 172.198 297.902 169.184 293.758 C168.556 292.899 167.929 292.039 167.283 291.154 C166.087 289.515 164.894 287.873 163.705 286.229 C160.717 282.141 157.701 278.459 154 275 C153.898 275.262 153.898 275.262 153.379 276.59 C151.395 280.058 148.695 282.693 145.938 285.562 C142.003 289.72 138.186 293.888 134.625 298.375 C130.809 303.148 126.704 307.573 122.5 312 C117.513 317.252 112.779 322.585 108.27 328.258 C104.972 332.242 101.445 336.002 97.896 339.762 C94.262 343.63 92.874 345.377 92.88 350.644 C92.878 351.623 92.877 352.602 92.876 353.61 C92.879 354.688 92.883 355.765 92.886 356.875 C92.886 358.007 92.886 359.139 92.886 360.305 C92.887 364.06 92.895 367.815 92.902 371.57 C92.904 374.168 92.906 376.766 92.907 379.364 C92.91 385.512 92.918 391.66 92.928 397.808 C92.94 405.493 92.946 413.178 92.951 420.863 C92.961 434.576 92.981 448.288 93 462 C62.31 462 31.62 462 0 462 C0 309.54 0 157.08 0 0 Z " fill="currentColor" transform="translate(21,117)"/>
<path d="M0 0 C0.644 0.226 1.287 0.451 1.951 0.684 C15.744 5.609 27.93 12.378 39 22 C39.82 22.687 40.64 23.374 41.484 24.082 C71.604 50.039 82.904 89.612 86 128 C86.122 131.072 86.132 134.138 86.12 137.213 C86.121 137.648 86.121 137.648 86.123 139.85 C86.124 142.735 86.119 145.62 86.114 148.504 C86.113 150.585 86.113 152.665 86.114 154.745 C86.114 160.37 86.108 165.996 86.101 171.621 C86.095 177.508 86.095 183.395 86.093 189.282 C86.09 200.42 86.082 211.558 86.072 222.696 C86.061 235.38 86.055 248.065 86.05 260.749 C86.04 286.833 86.022 312.916 86 339 C55.97 339 25.94 339 -5 339 C-5.019 332.036 -5.019 332.036 -5.113 296.793 C-5.144 287.947 -5.175 279.102 -5.209 270.256 C-5.263 256.228 -5.315 242.201 -5.346 228.174 C-5.37 217.955 -5.403 207.737 -5.449 197.518 C-5.473 192.115 -5.491 186.711 -5.498 181.307 C-5.504 176.206 -5.524 171.105 -5.554 166.004 C-5.563 164.146 -5.567 162.288 -5.565 160.43 C-5.547 133.408 -9.968 108.656 -28.762 88.07 C-41.824 75.32 -60.76 72.511 -78.221 72.646 C-99.083 73.182 -118.414 80.776 -133 96 C-157.01 124.782 -155.46 164.004 -155.506 199.275 C-155.516 204.203 -155.542 209.13 -155.566 214.057 C-155.609 223.35 -155.638 232.642 -155.661 241.935 C-155.694 254.518 -155.749 267.102 -155.803 279.686 C-155.887 299.457 -155.941 319.229 -156 339 C-185.7 339 -215.4 339 -246 339 C-246 226.47 -246 113.94 -246 -2 C-217.29 -2 -188.58 -2 -159 -2 C-156.918 0.082 -157.742 4.534 -157.684 7.41 C-157.663 8.252 -157.642 9.094 -157.621 9.962 C-157.555 12.662 -157.496 15.362 -157.438 18.062 C-157.394 19.889 -157.351 21.715 -157.307 23.541 C-157.199 28.027 -157.098 32.514 -157 37 C-156.142 36.123 -155.284 35.246 -154.4 34.343 C-153.245 33.172 -152.089 32.002 -150.934 30.832 C-150.372 30.257 -149.81 29.681 -149.231 29.088 C-111.654 -8.838 -49.045 -17.419 0 0 Z " fill="currentColor" transform="translate(1061,240)"/>
<path d="M0 0 C0.338 0.059 0.338 0.059 2.046 0.358 C25.264 4.661 45.838 15.129 64 30 C64.785 30.642 65.57 31.284 66.379 31.945 C70.841 35.721 74.074 39.42 78 44 C78.33 30.8 78.66 17.6 79 4 C107.38 4 135.76 4 165 4 C165 157.45 165 310.9 165 469 C135.3 469 105.6 469 75 469 C74.835 442.435 74.835 442.435 74 308 C68.72 313.28 63.44 318.56 58 324 C28.051 348.071 -9.574 354.922 -47.152 351.052 C-88.889 346.145 -128.016 325.927 -154.938 293.375 C-187.314 251.592 -199.576 200.181 -193.402 147.978 C-188.661 112.881 -175.467 79.759 -152 53 C-151.283 52.162 -150.567 51.324 -149.828 50.461 C-123.369 20.155 -83.51 1.189 -43.457 -1.859 C-28.95 -2.69 -14.334 -2.514 0 0 Z M-57 86 C-57.964 86.49 -58.928 86.98 -59.922 87.484 C-73.141 95.072 -84.163 107.499 -91 121 C-91.309 121.609 -91.617 122.218 -91.936 122.846 C-105.504 150.171 -106.717 182.751 -97.812 211.75 C-93.504 223.708 -87.572 234.566 -79 244 C-78.189 244.904 -77.378 245.807 -76.543 246.738 C-61.006 263.185 -40.438 272.235 -17.824 273.125 C6.224 273.553 28.203 266.522 46 250 C52.42 243.652 57.516 236.824 62 229 C62.525 228.087 63.049 227.175 63.59 226.234 C77.709 199.937 78.479 167.318 70.101 139.083 C63.029 116.97 48.951 97.166 28.301 85.902 C1.308 72.173 -30.212 72.295 -57 86 Z " fill="currentColor" transform="translate(1558,234)"/>
<path d="M0 0 C31.68 0 63.36 0 96 0 C102.514 15.397 109.002 30.782 115.289 46.269 C117.438 51.561 119.594 56.851 121.75 62.141 C121.969 62.679 121.969 62.679 123.08 65.404 C127.517 76.284 132.005 87.143 136.5 98 C143.046 113.815 149.542 129.649 156 145.5 C162.772 162.121 169.582 178.726 176.438 195.312 C176.837 196.279 177.236 197.245 177.648 198.241 C179.474 202.658 181.302 207.075 183.132 211.491 C184.295 214.296 185.454 217.102 186.606 219.912 C187.057 221.007 187.508 222.102 187.973 223.23 C188.348 224.146 188.723 225.061 189.11 226.005 C190 228 190 228 191 229 C197.897 211.809 204.774 194.61 211.562 177.375 C218.881 158.798 226.252 140.242 233.625 121.688 C233.931 120.917 234.238 120.146 234.553 119.351 C237.399 112.191 240.244 105.031 243.09 97.871 C247.789 86.047 252.487 74.223 257.184 62.398 C257.855 60.709 258.526 59.02 259.197 57.33 C261.785 50.814 264.373 44.298 266.961 37.783 C268.457 34.015 269.954 30.248 271.45 26.481 C271.996 25.106 272.543 23.73 273.089 22.355 C273.841 20.462 274.592 18.57 275.344 16.678 C275.553 16.151 275.553 16.151 276.613 13.483 C278.404 8.986 280.203 4.494 282 0 C312.36 0 342.72 0 374 0 C373.173 4.965 371.995 8.913 370.07 13.465 C369.769 14.193 369.467 14.921 369.157 15.671 C368.499 17.257 367.839 18.842 367.176 20.426 C365.338 24.818 363.523 29.218 361.703 33.617 C361.511 34.082 361.511 34.082 360.536 36.432 C356.251 46.783 352.063 57.172 347.875 67.562 C341.036 84.515 334.156 101.45 327.25 118.375 C318.001 141.046 308.825 163.747 299.671 186.457 C299.203 187.617 298.736 188.777 298.254 189.973 C297.794 191.113 297.335 192.253 296.861 193.428 C293.374 202.078 289.874 210.724 286.366 219.366 C279.999 235.051 273.651 250.742 267.312 266.438 C266.836 267.617 266.36 268.796 265.87 270.011 C259.769 285.124 253.695 300.248 247.648 315.383 C247.338 316.16 247.027 316.937 246.707 317.738 C243.646 325.399 240.587 333.06 237.532 340.724 C232.247 353.985 226.949 367.24 221.488 380.43 C221.104 381.364 220.719 382.298 220.323 383.26 C205.487 418.847 181.496 451.648 144.997 466.833 C129.193 472.898 113.072 475.235 96.25 475.25 C95.558 475.251 94.867 475.251 94.154 475.252 C82.878 475.235 72.003 474.61 61 472 C60.293 471.834 59.586 471.667 58.858 471.496 C39.408 466.727 20.242 458.027 5 445 C6.764 438.911 9.609 433.367 12.375 427.688 C13.458 425.448 14.542 423.208 15.625 420.969 C16.182 419.82 16.739 418.672 17.312 417.488 C18.967 414.069 20.61 410.645 22.25 407.219 C22.774 406.123 23.298 405.028 23.838 403.9 C24.831 401.825 25.823 399.751 26.814 397.677 C30.135 390.747 33.544 383.864 37 377 C41.126 378.592 44.757 380.548 48.562 382.812 C64.947 392.321 82.676 397.898 101.656 394.309 C115.782 390.365 124.615 382.015 132 369.562 C132.996 367.716 133.968 365.859 134.93 363.994 C136.066 361.878 137.309 359.849 138.562 357.801 C141.87 352.048 144.964 346.372 143.246 339.637 C141.702 335.3 139.626 331.23 137.541 327.133 C134.827 321.614 132.505 315.923 130.117 310.258 C128.841 307.243 127.545 304.238 126.25 301.232 C121.441 290.075 116.717 278.883 112 267.688 C104.873 250.775 97.699 233.882 90.5 217 C83.016 199.45 75.563 181.889 68.151 164.308 C62.13 150.026 56.075 135.759 50 121.5 C41.497 101.54 33.044 81.559 24.614 61.567 C21.631 54.494 18.644 47.423 15.656 40.352 C14.774 38.264 13.892 36.176 13.01 34.088 C11.735 31.069 10.459 28.051 9.183 25.032 C8.016 22.271 6.85 19.511 5.684 16.75 C5.339 15.934 4.994 15.119 4.638 14.279 C4.019 12.811 3.401 11.343 2.786 9.873 C2.122 8.292 1.447 6.716 0.77 5.141 C0 3 0 3 0 0 Z " fill="currentColor" transform="translate(400,238)"/>
</svg>
